<svg width="8" height="6" viewBox="0 0 8 6" fill="none" xmlns="http://www.w3.org/2000/svg">
<path id="Vector" d="M0.0215998 0.149534C0.00741625 0.176987 1.00136e-05 0.207436 0 0.238336C5.14984e-05 0.276902 0.0117645 0.31455 0.0336003 0.346338L3.84008 5.87045C3.85758 5.89586 3.881 5.91664 3.90832 5.93099C3.93563 5.94535 3.96603 5.95285 3.99688 5.95285C4.02774 5.95285 4.05813 5.94535 4.08545 5.93099C4.11276 5.91664 4.13618 5.89586 4.15369 5.87045L7.96657 0.346338C7.98634 0.31746 7.9978 0.28371 7.99971 0.248764C8.00163 0.213819 7.99391 0.17902 7.97741 0.148158C7.9609 0.117296 7.93624 0.0915554 7.90612 0.0737415C7.87599 0.0559277 7.84156 0.0467236 7.80656 0.0471322L0.190403 0.0471322C0.155594 0.0471401 0.121453 0.0566903 0.0916924 0.0747445C0.0619311 0.0927987 0.0376883 0.118666 0.0215998 0.149534Z" fill="#070137"/>
</svg>
