<svg width="23" height="20" viewBox="0 0 23 20" fill="none" xmlns="http://www.w3.org/2000/svg">
<g id="Group">
<path id="Vector" d="M22.4891 4.3863H7.06183C6.89444 3.60306 6.73369 2.87453 6.58572 2.24389C6.2788 0.940707 5.12904 0.0304197 3.78941 0.0304197H1.20598C1.13161 0.0122702 1.0552 0 0.975208 0C0.436748 0 0 0.436867 0 0.975728C0 1.51459 0.436748 1.95146 0.975464 1.95146C1.48786 1.95146 1.90314 1.55523 1.94301 1.05293H3.78941C4.65243 1.05293 5.39303 1.63908 5.59032 2.47805C5.97059 4.09566 6.43597 6.37201 6.88549 8.57347C7.33757 10.7846 7.80473 13.0712 8.18832 14.7021C8.43162 15.7361 9.20902 16.5199 10.1896 16.796C9.88804 17.1362 9.70302 17.5825 9.70302 18.0721C9.70302 19.135 10.5678 20 11.6304 20C12.693 20 13.5576 19.135 13.5576 18.0721C13.5576 17.6334 13.4086 17.2295 13.161 16.9054H17.1571C16.9092 17.2298 16.7602 17.6334 16.7602 18.0721C16.7602 19.135 17.625 20 18.6877 20C19.7503 20 20.6148 19.135 20.6148 18.0721C20.6148 17.6334 20.4658 17.2295 20.2182 16.9054H20.4623C20.7444 16.9054 20.9734 16.6763 20.9734 16.3941C20.9734 16.1119 20.7444 15.8829 20.4623 15.8829H10.9713C10.1321 15.8829 9.41296 15.323 9.19957 14.5171H17.7919C19.3943 14.5171 20.7894 13.4304 21.1842 11.8785L22.9833 5.02767C23.0234 4.87429 22.9902 4.71121 22.8936 4.58569C22.797 4.45967 22.6475 4.3863 22.4891 4.3863ZM18.6877 18.9772C18.1886 18.9772 17.7825 18.571 17.7825 18.0718C17.7825 17.5728 18.1886 17.1666 18.6877 17.1666C19.1865 17.1666 19.5926 17.5728 19.5926 18.0718C19.5926 18.571 19.1865 18.9772 18.6877 18.9772ZM11.6304 18.9772C11.1313 18.9772 10.7252 18.571 10.7252 18.0718C10.7252 17.5728 11.1313 17.1666 11.6304 17.1666C12.1293 17.1666 12.5354 17.5728 12.5354 18.0718C12.5354 18.571 12.1293 18.9772 11.6304 18.9772ZM20.1944 11.6223C19.9141 12.7246 18.9261 13.4943 17.7919 13.4943H8.96139C8.62916 12.0002 8.25324 10.1596 7.88728 8.36872C7.68411 7.37509 7.47813 6.36665 7.27777 5.40881H21.8264L20.1944 11.6223Z" fill="white"/>
</g>
</svg>
