<svg width="27" height="51" viewBox="0 0 27 51" fill="none" xmlns="http://www.w3.org/2000/svg">
<path id="&#209;&#129;&#209;&#130;&#209;&#128;&#208;&#181;&#208;&#187;&#208;&#186;&#208;&#176; &#208;&#191;" d="M26.0171 49.6496C25.7523 49.9166 25.3925 50.0678 25.0164 50.0699C24.8298 50.0717 24.6448 50.0353 24.4727 49.963C24.3006 49.8908 24.1451 49.7841 24.0157 49.6496L0.41843 26.0524C0.285904 25.9216 0.180679 25.7658 0.108858 25.594C0.0370369 25.4222 5.14984e-05 25.2379 5.14984e-05 25.0517C5.14984e-05 24.8655 0.0370369 24.6811 0.108858 24.5093C0.180679 24.3375 0.285904 24.1817 0.41843 24.0509L24.0157 0.448682C24.1454 0.309979 24.3018 0.198795 24.4754 0.121748C24.649 0.0446999 24.8363 0.00336294 25.0262 0.000196782C25.2161 -0.00296937 25.4047 0.0321 25.5808 0.103318C25.7568 0.174536 25.9168 0.280446 26.0511 0.414747C26.1854 0.549048 26.2913 0.708993 26.3625 0.885065C26.4337 1.06114 26.4688 1.24974 26.4656 1.43964C26.4625 1.62954 26.4211 1.81687 26.3441 1.99047C26.267 2.16407 26.1558 2.3204 26.0171 2.45014L3.42062 25.0517L26.0171 47.6482C26.1491 47.7793 26.2538 47.9352 26.3252 48.107C26.3966 48.2787 26.4334 48.4629 26.4334 48.6489C26.4334 48.8349 26.3966 49.0191 26.3252 49.1908C26.2538 49.3626 26.1491 49.5185 26.0171 49.6496Z" fill="#F3F3F3"/>
</svg>
