<svg width="27" height="51" viewBox="0 0 27 51" fill="none" xmlns="http://www.w3.org/2000/svg">
<path id="&#209;&#129;&#209;&#130;&#209;&#128;&#208;&#181;&#208;&#187;&#208;&#186;&#208;&#176; &#208;&#191;" d="M0.914502 49.6496C1.17932 49.9166 1.53918 50.0678 1.91523 50.0699C2.10186 50.0717 2.28689 50.0353 2.45896 49.963C2.63104 49.8908 2.78655 49.7841 2.91596 49.6496L26.5132 26.0524C26.6457 25.9216 26.751 25.7658 26.8228 25.594C26.8946 25.4222 26.9316 25.2379 26.9316 25.0517C26.9316 24.8655 26.8946 24.6811 26.8228 24.5093C26.751 24.3375 26.6457 24.1817 26.5132 24.0509L2.91596 0.448682C2.78622 0.309979 2.62989 0.198795 2.45629 0.121748C2.28269 0.0446999 2.09536 0.00336294 1.90546 0.000196782C1.71556 -0.00296937 1.52696 0.0321 1.35089 0.103318C1.17481 0.174536 1.01487 0.280446 0.880567 0.414747C0.746266 0.549048 0.640356 0.708993 0.569138 0.885065C0.49792 1.06114 0.462851 1.24974 0.466017 1.43964C0.469183 1.62954 0.51052 1.81687 0.587568 1.99047C0.664615 2.16407 0.775799 2.3204 0.914502 2.45014L23.511 25.0517L0.914502 47.6482C0.78258 47.7793 0.677888 47.9352 0.606448 48.107C0.535008 48.2787 0.49823 48.4629 0.49823 48.6489C0.49823 48.8349 0.535008 49.0191 0.606448 49.1908C0.677888 49.3626 0.78258 49.5185 0.914502 49.6496Z" fill="#F3F3F3"/>
</svg>
